# xmcd
#
# Track frame offsets:
#	150
#	19499
#	45752
#	59747
#	77656
#	90073
#	109815
#	123859
#	140183
#	151119
#	168013
#	185802
#	198245
#	216669
#	231971
#	246229
#	262036
#	276077
#	294307
#
# Disc length: 4122 seconds
#
# Revision: 0
# Processed by: cddbd v1.5.2PL0 Copyright (c) Steve Scherf et al.
# Submitted via: audiograbber 1.83.01
#
DISCID=11101813
DTITLE=Various Artist - Promo Only Country Radio 2009 - 09
DYEAR=2009
DGENRE=Country
TTITLE0=Zac Brown Band - Toes
TTITLE1=Brad Paisley - Welcome To The Future (Album Version)
TTITLE2=Tim McGraw - It's A Business Doing Pleasure With You
TTITLE3=Sugarland - Joey (Album Version)
TTITLE4=Toby Keith - American Ride
TTITLE5=Alan Jackson - I Still Like Bologna
TTITLE6=Fast Ryde - That Thang
TTITLE7=Keith Urban - Only You Can Love Me This Way
TTITLE8=Larry Gatlin and The Gatlin Brothers - Johnny Cash Is Dead (And His House
TTITLE8=Burned Down)
TTITLE9=Lost Trailers - Country Folks (Livin' Loud)
TTITLE10=Dierks Bentley - I Wanna Make You Close Your Eyes
TTITLE11=Heartland - Mustache
TTITLE12=Blaine Larsen - It Did
TTITLE13=Tyler Dean - Taylor Swift
TTITLE14=Anthony Smith - Bringin' Back The Sunshine
TTITLE15=Sarah Buxton - Outside My Window (Single Version)
TTITLE16=Bill Gentry - I Want What You Want
TTITLE17=Trent Tomlinson - Henry Cartwright's Produce Stand
TTITLE18=Katie Armiger - Gone (Album Version)
EXTD=
EXTT0=
EXTT1=
EXTT2=
EXTT3=
EXTT4=
EXTT5=
EXTT6=
EXTT7=
EXTT8=
EXTT9=
EXTT10=
EXTT11=
EXTT12=
EXTT13=
EXTT14=
EXTT15=
EXTT16=
EXTT17=
EXTT18=
PLAYORDER=
